<mxfile host="app.diagrams.net" modified="2022-02-24T03:01:51.303Z" agent="5.0 (Macintosh; Intel Mac OS X 10_15_7) AppleWebKit/537.36 (KHTML, like Gecko) Chrome/98.0.4758.102 Safari/537.36" etag="4VD-0EYoU3lyf3hjGsM1" version="16.6.3" type="github">
  <diagram id="DLfbWz6DVWivaFfz0EM2" name="Page-1">
    <mxGraphModel dx="652" dy="330" grid="1" gridSize="10" guides="1" tooltips="1" connect="1" arrows="1" fold="1" page="1" pageScale="1" pageWidth="827" pageHeight="1169" math="0" shadow="0">
      <root>
        <mxCell id="0" />
        <mxCell id="1" parent="0" />
        <mxCell id="irB7EAz_y95BLKOjSzVQ-3" style="edgeStyle=orthogonalEdgeStyle;rounded=0;orthogonalLoop=1;jettySize=auto;html=1;exitX=0.5;exitY=1;exitDx=0;exitDy=0;entryX=0.5;entryY=0;entryDx=0;entryDy=0;" edge="1" parent="1" source="irB7EAz_y95BLKOjSzVQ-1" target="irB7EAz_y95BLKOjSzVQ-2">
          <mxGeometry relative="1" as="geometry" />
        </mxCell>
        <mxCell id="irB7EAz_y95BLKOjSzVQ-1" value="开始" style="ellipse;whiteSpace=wrap;html=1;aspect=fixed;" vertex="1" parent="1">
          <mxGeometry x="120" y="40" width="80" height="80" as="geometry" />
        </mxCell>
        <mxCell id="irB7EAz_y95BLKOjSzVQ-5" style="edgeStyle=orthogonalEdgeStyle;rounded=0;orthogonalLoop=1;jettySize=auto;html=1;exitX=0.5;exitY=1;exitDx=0;exitDy=0;entryX=0.5;entryY=0;entryDx=0;entryDy=0;" edge="1" parent="1" source="irB7EAz_y95BLKOjSzVQ-2" target="irB7EAz_y95BLKOjSzVQ-6">
          <mxGeometry relative="1" as="geometry">
            <mxPoint x="160" y="250" as="targetPoint" />
          </mxGeometry>
        </mxCell>
        <mxCell id="irB7EAz_y95BLKOjSzVQ-2" value="库存管理点击出库" style="rounded=1;whiteSpace=wrap;html=1;" vertex="1" parent="1">
          <mxGeometry x="100" y="160" width="120" height="60" as="geometry" />
        </mxCell>
        <mxCell id="irB7EAz_y95BLKOjSzVQ-6" value="出库指令下发" style="rounded=1;whiteSpace=wrap;html=1;" vertex="1" parent="1">
          <mxGeometry x="100" y="260" width="120" height="60" as="geometry" />
        </mxCell>
      </root>
    </mxGraphModel>
  </diagram>
</mxfile>
